<svg xmlns="http://www.w3.org/2000/svg" version="1.1" xmlns:xlink="http://www.w3.org/1999/xlink" xmlns:svgjs="http://svgjs.dev/svgjs" viewBox="0 0 1920 1080" class="overflow-hidden rounded-md drop-shadow-lg transition duration-300" style="overflow: hidden; height: 85vh;"><rect width="1920" height="1080" fill="#e53e3e"></rect><g clip-path="url(&quot;#SvgjsClipPath1790&quot;)"><g transform="matrix(0.6263348902672812,0.9644711531372374,-0.9644711531372374,0.6263348902672812,868.3717354880056,-695.3048700543827)"><path d="M0,-1080C-5.507540638388242,-982.5774639229826,-23.19339311494968,-714.849440027975,-33.045243830329454,-495.4647835378958C-42.89709454570923,-276.08012704781663,-63.598778534490805,4.807362308478815,-59.11110429227864,236.30793894047503C-54.623430050066474,467.80851557247126,-15.253060217269711,691.6802421097209,-6.11919837705647,893.5386762540815C3.0146634631567704,1095.397110398442,-5.327799647175277,1236.381656515652,-4.3079332509991985,1447.4585438066383C-3.2880668548231204,1658.5354310976247,-0.7179888751665331,2041.2430906344398,0,2160L 1920 2160 L 1920 -1080 Z" fill="url(&quot;#SvgjsLinearGradient1788&quot;)"></path><path d="M960,-1080C960.8397399050106,-993.4218778175386,960.7748713439563,-718.5868111132942,965.0384394300634,-560.5312669052315C969.3020075161704,-402.47572269716886,980.1176854803343,-269.34038918052386,985.5814085166425,-131.66673475162412C991.0451315529506,6.006919677275647,1002.4614558061015,111.7454552078963,997.8207776479121,265.5106596681671C993.1800994897227,419.2758641284379,970.2708532392256,631.9623825935829,957.7373395675061,790.9244920100006C945.2038258957865,949.8866014264182,927.5898400095392,1074.8649216535068,922.6196956175947,1219.2833161666729C917.6495512256503,1363.701710679839,921.6864224854382,1500.6487451167754,927.9164732158391,1657.4348590889967C934.14652394624,1814.220973061218,954.6527455359732,2076.2391431814995,960,2160L 1920 2160 L 1920 -1080 Z" fill="url(&quot;#SvgjsLinearGradient1789&quot;)"></path></g></g><defs><linearGradient x1="0.1" y1="0" x2="0" y2="1" id="SvgjsLinearGradient1788"><stop stop-color="#e53e3e" offset="0"></stop><stop stop-color="#e53e5a" offset="0"></stop></linearGradient><linearGradient x1="0.1" y1="0" x2="0" y2="1" id="SvgjsLinearGradient1789"><stop stop-color="#f6bcbc" offset="0"></stop><stop stop-color="#f6bcc6" offset="0.5"></stop></linearGradient><clipPath id="SvgjsClipPath1790"><rect width="1920" height="1080"></rect></clipPath></defs></svg>