<svg xmlns="http://www.w3.org/2000/svg" version="1.1" xmlns:xlink="http://www.w3.org/1999/xlink" xmlns:svgjs="http://svgjs.dev/svgjs" viewBox="0 0 1920 1080" class="overflow-hidden rounded-md drop-shadow-lg transition duration-300" style="overflow: hidden; height: 85vh;"><rect width="1920" height="1080" fill="#e9defa"></rect><g clip-path="url(&quot;#SvgjsClipPath1519&quot;)"><g transform="matrix(7.04171909509728e-17,1.15,-1.15,7.04171909509728e-17,1535.7609405517578,-511.9750816345213)"><path d="M0,-1080C3.1386961539259772,-994.3075286887266,26.199970778980198,-753.9423837872629,18.832176923555863,-565.84517213236C11.464383068131529,-377.747960477457,-28.766874168793166,-138.35159422444622,-44.206763132546,48.583269929417696C-59.64665209629884,235.5181340832816,-66.8847595704131,395.52932340066434,-73.80715685896115,555.7640127908236C-80.7295541475092,715.9987021809828,-99.07889748279422,826.4310139645095,-85.74114686383436,1009.9914062703733C-72.4033962448745,1193.5517985762372,-8.070844289174346,1465.4582676710688,6.219346854798047,1657.1263666260065C20.50953799877044,1848.7944655809442,1.0365578091330079,2076.187727771001,0,2160L 1920 2160 L 1920 -1080 Z" fill="url(&quot;#SvgjsLinearGradient1517&quot;)"></path><path d="M960,-1080C963.599936686302,-977.6478593269603,986.8018905974111,-635.5053722614655,981.599620117812,-465.887155961762C976.397349638213,-296.26893966205853,933.6825149485508,-236.04494214291836,928.7863771224058,-62.29070220177917C923.8902392962609,111.46353773936002,943.1870939590101,392.92236567860084,952.2227931609422,576.6382836850731C961.2584923628742,760.3542016915454,968.4080956695034,860.7495888420929,983.0005723339982,1040.0048058370546C997.593048998493,1219.2600228320164,1043.6110818702439,1465.5037199610192,1039.7776531479108,1652.1695856548436C1035.9442244255777,1838.835451348668,973.2962755246518,2075.3615976091405,960,2160L 1920 2160 L 1920 -1080 Z" fill="url(&quot;#SvgjsLinearGradient1518&quot;)"></path></g></g><defs><linearGradient x1="0.1" y1="0" x2="0" y2="1" id="SvgjsLinearGradient1517"><stop stop-color="#e9defa" offset="0"></stop><stop stop-color="#e4defa" offset="0"></stop></linearGradient><linearGradient x1="0.1" y1="0" x2="0" y2="1" id="SvgjsLinearGradient1518"><stop stop-color="#f8f5fd" offset="0"></stop><stop stop-color="#f7f5fd" offset="0.5"></stop></linearGradient><clipPath id="SvgjsClipPath1519"><rect width="1920" height="1080"></rect></clipPath></defs></svg>